<?xml version="1.0" encoding="UTF-8"?>
<svg xmlns="http://www.w3.org/2000/svg" xmlns:xlink="http://www.w3.org/1999/xlink" width="40px" height="40px" viewBox="0 0 40 40" version="1.1">
<g id="surface1">
<path style=" stroke:none;fill-rule:nonzero;fill:rgb(98.431373%,69.411765%,25.098039%);fill-opacity:1;" d="M 1.789062 40.1875 L 0.132812 40.1875 L 0.132812 0.1875 C 0.992188 0.1875 1.839844 0.1875 2.75 0.265625 C 2.8125 0.660156 2.8125 0.976562 2.753906 1.304688 C 2.105469 1.316406 1.515625 1.316406 0.929688 1.316406 L 0.929688 39.027344 C 1.242188 39.050781 1.515625 39.070312 1.789062 39.167969 Z M 1.789062 40.1875 "/>
<path style=" stroke:none;fill-rule:nonzero;fill:rgb(97.647059%,92.54902%,19.607843%);fill-opacity:1;" d="M 38.339844 0.1875 L 40.125 0.1875 C 40.125 13.523438 40.125 26.855469 40.125 40.1875 C 39.609375 40.1875 39.097656 40.1875 38.527344 40.109375 C 38.464844 39.714844 38.464844 39.402344 38.523438 39.074219 C 38.828125 39.058594 39.074219 39.058594 39.324219 39.058594 L 39.324219 1.289062 C 38.972656 1.289062 38.65625 1.289062 38.339844 1.210938 C 38.339844 0.816406 38.339844 0.503906 38.339844 0.1875 Z M 38.339844 0.1875 "/>
<path style=" stroke:none;fill-rule:nonzero;fill:rgb(98.431373%,71.764706%,24.313725%);fill-opacity:1;" d="M 2.8125 1.289062 L 2.8125 0.265625 C 4.347656 0.1875 5.882812 0.1875 7.472656 0.257812 C 7.488281 0.648438 7.449219 0.96875 7.351562 1.304688 C 5.800781 1.308594 4.304688 1.296875 2.8125 1.289062 Z M 2.8125 1.289062 "/>
<path style=" stroke:none;fill-rule:nonzero;fill:rgb(98.431373%,74.901961%,23.529412%);fill-opacity:1;" d="M 7.414062 1.289062 C 7.449219 0.96875 7.488281 0.648438 7.53125 0.257812 C 9.003906 0.1875 10.480469 0.191406 11.953125 0.265625 C 12.011719 0.660156 12.011719 0.976562 11.953125 1.304688 C 10.402344 1.308594 8.90625 1.296875 7.414062 1.289062 Z M 7.414062 1.289062 "/>
<path style=" stroke:none;fill-rule:nonzero;fill:rgb(97.647059%,88.627451%,20.784314%);fill-opacity:1;" d="M 30.414062 0.1875 C 31.824219 0.1875 33.230469 0.1875 34.699219 0.265625 C 34.761719 0.660156 34.761719 0.976562 34.703125 1.304688 C 33.234375 1.308594 31.824219 1.296875 30.414062 1.210938 Z M 30.414062 0.1875 "/>
<path style=" stroke:none;fill-rule:nonzero;fill:rgb(98.039216%,83.529412%,21.960784%);fill-opacity:1;" d="M 22.109375 0.1875 C 23.472656 0.1875 24.839844 0.1875 26.265625 0.265625 C 26.324219 0.660156 26.324219 0.976562 26.265625 1.304688 C 24.839844 1.308594 23.476562 1.296875 22.109375 1.210938 Z M 22.109375 0.1875 "/>
<path style=" stroke:none;fill-rule:nonzero;fill:rgb(97.647059%,88.627451%,20.784314%);fill-opacity:1;" d="M 35.144531 40.1875 C 33.820312 40.1875 32.496094 40.1875 31.113281 40.117188 C 31.011719 39.726562 30.96875 39.40625 30.984375 39.074219 C 32.410156 39.070312 33.777344 39.078125 35.144531 39.167969 Z M 35.144531 40.1875 "/>
<path style=" stroke:none;fill-rule:nonzero;fill:rgb(98.039216%,85.882353%,21.176471%);fill-opacity:1;" d="M 26.324219 1.289062 L 26.324219 0.265625 C 27.648438 0.1875 28.972656 0.1875 30.355469 0.1875 C 30.414062 0.503906 30.414062 0.816406 30.355469 1.226562 C 28.972656 1.308594 27.648438 1.296875 26.324219 1.289062 Z M 26.324219 1.289062 "/>
<path style=" stroke:none;fill-rule:nonzero;fill:rgb(98.431373%,72.941176%,24.313725%);fill-opacity:1;" d="M 8.433594 40.1875 C 7.238281 40.1875 6.042969 40.1875 4.789062 40.109375 C 4.726562 39.71875 4.730469 39.402344 4.789062 39.074219 C 6.128906 39.070312 7.410156 39.078125 8.683594 39.152344 C 8.601562 39.5 8.519531 39.84375 8.433594 40.1875 Z M 8.433594 40.1875 "/>
<path style=" stroke:none;fill-rule:nonzero;fill:rgb(98.039216%,75.294118%,23.529412%);fill-opacity:1;" d="M 8.496094 40.1875 C 8.515625 39.863281 8.59375 39.539062 8.742188 39.136719 C 9.960938 39.070312 11.117188 39.078125 12.277344 39.15625 C 12.324219 39.546875 12.359375 39.867188 12.394531 40.1875 Z M 8.496094 40.1875 "/>
<path style=" stroke:none;fill-rule:nonzero;fill:rgb(98.039216%,77.254902%,23.137255%);fill-opacity:1;" d="M 12.011719 1.289062 L 12.011719 0.265625 C 13.164062 0.1875 14.320312 0.1875 15.53125 0.265625 C 15.589844 0.660156 15.589844 0.976562 15.53125 1.304688 C 14.320312 1.308594 13.167969 1.296875 12.011719 1.289062 Z M 12.011719 1.289062 "/>
<path style=" stroke:none;fill-rule:nonzero;fill:rgb(97.647059%,90.980392%,20%);fill-opacity:1;" d="M 34.761719 1.289062 L 34.761719 0.265625 C 35.914062 0.1875 37.066406 0.1875 38.277344 0.1875 C 38.339844 0.503906 38.339844 0.816406 38.28125 1.226562 C 37.066406 1.308594 35.914062 1.296875 34.761719 1.289062 Z M 34.761719 1.289062 "/>
<path style=" stroke:none;fill-rule:nonzero;fill:rgb(98.039216%,86.666667%,21.176471%);fill-opacity:1;" d="M 30.925781 39.089844 C 30.96875 39.40625 31.011719 39.726562 31.054688 40.117188 C 29.902344 40.1875 28.75 40.1875 27.535156 40.117188 C 27.433594 39.726562 27.390625 39.40625 27.40625 39.074219 C 28.621094 39.070312 29.773438 39.078125 30.925781 39.089844 Z M 30.925781 39.089844 "/>
<path style=" stroke:none;fill-rule:nonzero;fill:rgb(98.039216%,81.176471%,22.352941%);fill-opacity:1;" d="M 22.046875 0.1875 C 22.109375 0.503906 22.109375 0.816406 22.050781 1.226562 C 20.878906 1.308594 19.769531 1.296875 18.660156 1.210938 L 18.65625 0.1875 Z M 22.046875 0.1875 "/>
<path style=" stroke:none;fill-rule:nonzero;fill:rgb(97.647059%,90.980392%,20%);fill-opacity:1;" d="M 35.203125 40.1875 C 35.144531 39.875 35.144531 39.558594 35.203125 39.152344 C 36.332031 39.070312 37.398438 39.078125 38.464844 39.089844 L 38.464844 40.109375 C 37.398438 40.1875 36.332031 40.1875 35.203125 40.1875 Z M 35.203125 40.1875 "/>
<path style=" stroke:none;fill-rule:nonzero;fill:rgb(98.039216%,84.313725%,21.568627%);fill-opacity:1;" d="M 27.347656 39.089844 C 27.390625 39.40625 27.433594 39.726562 27.476562 40.117188 C 26.410156 40.1875 25.339844 40.1875 24.214844 40.109375 C 24.152344 39.71875 24.152344 39.402344 24.210938 39.074219 C 25.296875 39.070312 26.324219 39.078125 27.347656 39.089844 Z M 27.347656 39.089844 "/>
<path style=" stroke:none;fill-rule:nonzero;fill:rgb(98.039216%,77.254902%,23.137255%);fill-opacity:1;" d="M 12.457031 40.1875 C 12.359375 39.867188 12.324219 39.546875 12.335938 39.144531 C 13.457031 39.070312 14.523438 39.078125 15.589844 39.167969 L 15.589844 40.1875 Z M 12.457031 40.1875 "/>
<path style=" stroke:none;fill-rule:nonzero;fill:rgb(98.039216%,82.745098%,21.960784%);fill-opacity:1;" d="M 24.152344 39.089844 L 24.152344 40.109375 C 23.171875 40.1875 22.1875 40.1875 21.136719 40.121094 C 21.035156 39.730469 20.996094 39.410156 21.019531 39.074219 C 22.101562 39.070312 23.128906 39.078125 24.152344 39.089844 Z M 24.152344 39.089844 "/>
<path style=" stroke:none;fill-rule:nonzero;fill:rgb(98.039216%,79.215686%,22.745098%);fill-opacity:1;" d="M 18.597656 0.1875 C 18.660156 0.503906 18.660156 0.816406 18.597656 1.226562 C 17.558594 1.308594 16.574219 1.296875 15.589844 1.289062 L 15.589844 0.265625 C 16.574219 0.1875 17.554688 0.1875 18.597656 0.1875 Z M 18.597656 0.1875 "/>
<path style=" stroke:none;fill-rule:nonzero;fill:rgb(98.431373%,70.588235%,24.705882%);fill-opacity:1;" d="M 4.730469 39.089844 L 4.726562 40.109375 C 3.789062 40.1875 2.847656 40.1875 1.847656 40.1875 C 1.789062 39.875 1.789062 39.558594 1.847656 39.152344 C 2.847656 39.070312 3.789062 39.078125 4.730469 39.089844 Z M 4.730469 39.089844 "/>
<path style=" stroke:none;fill-rule:nonzero;fill:rgb(98.039216%,79.215686%,22.745098%);fill-opacity:1;" d="M 15.652344 40.1875 C 15.589844 39.875 15.589844 39.558594 15.652344 39.152344 C 16.605469 39.070312 17.503906 39.078125 18.394531 39.15625 C 18.347656 39.546875 18.3125 39.867188 18.273438 40.1875 Z M 15.652344 40.1875 "/>
<path style=" stroke:none;fill-rule:nonzero;fill:rgb(98.039216%,80.784314%,22.352941%);fill-opacity:1;" d="M 18.335938 40.1875 C 18.3125 39.867188 18.347656 39.546875 18.453125 39.144531 C 19.332031 39.070312 20.144531 39.078125 20.957031 39.089844 C 20.996094 39.410156 21.035156 39.730469 21.078125 40.121094 C 20.1875 40.1875 19.292969 40.1875 18.335938 40.1875 Z M 18.335938 40.1875 "/>
<path style=" stroke:none;fill-rule:nonzero;fill:rgb(0%,0%,0%);fill-opacity:1;" d="M 21.019531 39.074219 C 20.144531 39.078125 19.332031 39.070312 18.460938 39.074219 C 17.503906 39.078125 16.605469 39.070312 15.652344 39.074219 C 14.523438 39.078125 13.457031 39.070312 12.328125 39.074219 C 11.117188 39.078125 9.960938 39.070312 8.75 39.074219 C 7.410156 39.078125 6.128906 39.070312 4.789062 39.074219 C 3.789062 39.078125 2.847656 39.070312 1.847656 39.074219 C 1.515625 39.070312 1.242188 39.050781 0.929688 39.027344 L 0.929688 1.316406 C 1.515625 1.316406 2.105469 1.316406 2.753906 1.304688 C 4.304688 1.296875 5.800781 1.308594 7.351562 1.304688 C 8.90625 1.296875 10.402344 1.308594 11.953125 1.304688 C 13.167969 1.296875 14.320312 1.308594 15.53125 1.304688 C 16.574219 1.296875 17.558594 1.308594 18.597656 1.304688 C 19.769531 1.296875 20.878906 1.308594 22.050781 1.304688 C 23.476562 1.296875 24.839844 1.308594 26.265625 1.304688 C 27.648438 1.296875 28.972656 1.308594 30.355469 1.304688 C 31.824219 1.296875 33.234375 1.308594 34.703125 1.304688 C 35.914062 1.296875 37.066406 1.308594 38.28125 1.304688 C 38.65625 1.289062 38.972656 1.289062 39.324219 1.289062 L 39.324219 39.058594 C 39.074219 39.058594 38.828125 39.058594 38.523438 39.074219 C 37.398438 39.078125 36.332031 39.070312 35.203125 39.074219 C 33.777344 39.078125 32.410156 39.070312 30.984375 39.074219 C 29.773438 39.078125 28.621094 39.070312 27.40625 39.074219 C 26.324219 39.078125 25.296875 39.070312 24.210938 39.074219 C 23.128906 39.078125 22.101562 39.070312 21.019531 39.074219 M 26.308594 17.730469 C 27.308594 18.019531 27.96875 16.996094 27.878906 15.433594 C 27.785156 13.746094 27.875 12.039062 27.847656 10.34375 C 27.839844 9.988281 27.691406 9.613281 27.5625 9.289062 C 27.238281 8.488281 26.703125 8.65625 26.085938 8.683594 C 25.9375 8.679688 25.789062 8.679688 25.636719 8.679688 C 24.679688 8.679688 24.152344 9.464844 24.152344 10.894531 C 24.152344 12.554688 24.136719 14.21875 24.167969 15.878906 C 24.171875 16.234375 24.316406 16.609375 24.445312 16.933594 C 24.863281 17.964844 25.550781 17.761719 26.308594 17.730469 M 21.734375 8.683594 L 20 8.683594 L 20 17.703125 C 20.625 17.703125 21.238281 17.703125 21.964844 17.730469 C 22.070312 17.734375 22.175781 17.734375 22.28125 17.734375 C 23.238281 17.738281 23.769531 16.949219 23.769531 15.535156 C 23.769531 13.875 23.777344 12.21875 23.765625 10.5625 C 23.761719 10.273438 23.707031 9.960938 23.625 9.699219 C 23.25 8.550781 22.554688 8.609375 21.734375 8.683594 M 9.082031 8.683594 L 7.347656 8.683594 L 7.347656 17.664062 L 8.851562 17.664062 C 8.796875 16.757812 8.753906 15.921875 8.6875 15.09375 C 8.644531 14.621094 8.789062 14.476562 9.171875 14.527344 C 9.265625 14.773438 9.433594 15.011719 9.445312 15.265625 C 9.480469 16.066406 9.457031 16.871094 9.457031 17.6875 L 11.234375 17.6875 C 11.097656 17.023438 10.9375 16.46875 10.882812 15.894531 C 10.804688 15.046875 10.160156 14.144531 10.949219 13.324219 C 11.015625 13.253906 10.988281 12.972656 10.988281 12.785156 C 10.992188 12.066406 11.027344 11.339844 10.976562 10.628906 C 10.945312 10.210938 10.800781 9.789062 10.652344 9.417969 C 10.316406 8.582031 9.765625 8.59375 9.082031 8.683594 M 17.632812 11.15625 C 16.957031 8.613281 16.957031 8.613281 15.609375 8.695312 C 15.570312 8.695312 15.535156 8.75 15.398438 8.855469 C 15.910156 11.746094 15.8125 14.71875 15.425781 17.675781 L 17.144531 17.675781 L 16.800781 13.746094 L 16.945312 13.6875 C 17.085938 14.097656 17.226562 14.503906 17.378906 15.0625 C 17.476562 15.492188 17.554688 15.9375 17.675781 16.355469 C 18.121094 17.914062 18.125 17.910156 19.296875 17.625 L 19.296875 16.707031 C 19.296875 14.886719 19.265625 13.066406 19.3125 11.246094 C 19.332031 10.421875 19.503906 9.605469 19.613281 8.722656 L 17.878906 8.722656 L 18.210938 12.675781 L 18.09375 12.691406 C 17.988281 12.421875 17.882812 12.148438 17.765625 11.753906 C 17.757812 11.671875 17.75 11.589844 17.75 11.40625 C 17.714844 11.371094 17.675781 11.335938 17.632812 11.15625 M 30.648438 14.902344 C 31.363281 15.203125 31.207031 14.042969 31.652344 13.546875 L 31.296875 17.675781 L 32.9375 17.675781 C 32.863281 16.148438 32.734375 14.683594 32.730469 13.214844 C 32.730469 11.726562 32.855469 10.242188 32.925781 8.714844 L 31.511719 8.714844 C 31.183594 9.730469 30.867188 10.703125 30.542969 11.535156 C 30.5 11.332031 30.457031 11.128906 30.410156 10.929688 C 29.84375 8.605469 29.84375 8.605469 28.382812 8.695312 C 28.34375 8.695312 28.308594 8.75 28.191406 8.847656 C 28.660156 11.75 28.609375 14.722656 28.203125 17.671875 L 29.917969 17.671875 L 29.5625 13.40625 C 30.042969 13.867188 29.75 15.125 30.648438 14.902344 M 14.972656 29.058594 C 14.488281 29.15625 14.289062 28.910156 14.300781 28.128906 C 14.335938 26.246094 14.304688 24.359375 14.320312 22.472656 C 14.324219 22.15625 14.40625 21.820312 14.496094 21.53125 C 14.855469 20.40625 14.53125 19.621094 13.695312 19.621094 L 12.433594 19.621094 C 12.558594 20.710938 12.742188 21.667969 12.765625 22.632812 C 12.8125 24.734375 12.757812 26.84375 12.796875 28.949219 C 12.804688 29.386719 12.988281 29.847656 13.148438 30.242188 C 13.59375 31.335938 14.300781 31.488281 15.195312 31.316406 C 15.320312 31.316406 15.449219 31.320312 15.578125 31.320312 C 16.609375 31.320312 17.378906 30.199219 17.378906 28.6875 C 17.378906 26.644531 17.378906 24.601562 17.378906 22.558594 C 17.378906 22.335938 17.363281 22.109375 17.390625 21.898438 C 17.492188 21.167969 17.613281 20.445312 17.730469 19.683594 L 15.511719 19.683594 C 15.628906 20.726562 15.804688 21.675781 15.832031 22.636719 C 15.882812 24.394531 15.8125 26.15625 15.859375 27.914062 C 15.886719 28.828125 15.683594 29.191406 14.972656 29.058594 M 20.433594 31.316406 C 20.667969 31.320312 20.902344 31.320312 21.136719 31.320312 C 22.089844 31.316406 22.875 30.15625 22.875 28.757812 C 22.875 26.402344 22.886719 24.046875 22.863281 21.691406 C 22.859375 21.332031 22.722656 20.949219 22.589844 20.628906 C 22.113281 19.464844 21.347656 19.527344 20.460938 19.625 C 20.140625 19.625 19.824219 19.617188 19.507812 19.625 C 18.910156 19.632812 18.148438 20.765625 18.148438 21.65625 C 18.144531 24.15625 18.144531 26.660156 18.152344 29.160156 C 18.152344 29.394531 18.167969 29.6875 18.257812 29.847656 C 18.789062 30.789062 19.34375 31.710938 20.433594 31.316406 M 9.46875 19.625 C 9.257812 19.625 9.046875 19.621094 8.835938 19.621094 C 7.96875 19.625 7.285156 20.644531 7.285156 21.9375 C 7.285156 24.097656 7.285156 26.253906 7.285156 28.414062 C 7.285156 30.261719 8.476562 31.953125 9.820312 31.882812 C 9.96875 31.875 10.160156 31.953125 10.253906 31.847656 C 10.691406 31.34375 11.089844 30.761719 11.523438 30.261719 C 11.933594 29.792969 12.035156 29.21875 12.023438 28.472656 C 11.992188 26.3125 12.03125 24.144531 11.996094 21.984375 C 11.988281 21.546875 11.800781 21.09375 11.640625 20.695312 C 11.164062 19.488281 10.382812 19.519531 9.46875 19.625 M 31.164062 21.882812 L 32.929688 22.132812 L 32.929688 19.652344 C 32.191406 19.652344 31.496094 19.652344 30.679688 19.625 L 28.65625 19.625 C 29.203125 23.570312 29.101562 27.421875 28.699219 31.289062 C 29.574219 31.289062 30.3125 31.289062 31.171875 31.316406 L 32.941406 31.316406 L 32.941406 28.546875 C 32.195312 28.738281 31.496094 28.910156 30.6875 29.054688 C 30.621094 28.25 30.554688 27.445312 30.488281 26.644531 C 30.761719 26.609375 30.90625 26.589844 31.167969 26.601562 C 32.488281 26.613281 32.523438 26.546875 32.25 24.316406 C 31.691406 24.316406 31.117188 24.316406 30.542969 24.144531 L 30.542969 21.921875 C 30.757812 21.894531 30.90625 21.875 31.164062 21.882812 M 25.046875 22.082031 C 25.046875 24.125 25.046875 26.164062 25.046875 28.203125 C 25.046875 28.453125 25.050781 28.707031 25.019531 28.949219 C 24.921875 29.707031 24.8125 30.460938 24.695312 31.273438 L 26.75 31.273438 L 26.523438 21.992188 L 28.203125 21.992188 L 28.203125 19.652344 C 27.125 19.652344 26.085938 19.652344 24.929688 19.625 L 23.417969 19.625 L 23.417969 22.140625 C 23.984375 22.058594 24.511719 21.984375 25.046875 22.082031 M 12.003906 12.113281 C 11.710938 13.957031 11.3125 15.773438 11.21875 17.789062 C 11.691406 17.726562 12.183594 17.871094 12.363281 17.585938 C 12.609375 17.199219 12.621094 16.480469 12.734375 15.894531 C 13.0625 15.894531 13.558594 15.695312 13.699219 15.941406 C 13.953125 16.382812 13.992188 17.09375 14.121094 17.679688 L 15.402344 17.679688 C 15.039062 14.664062 14.148438 11.84375 14.464844 8.722656 L 12.011719 8.722656 C 12.011719 9.824219 12.011719 10.886719 12.003906 12.113281 Z M 12.003906 12.113281 "/>
<path style=" stroke:none;fill-rule:nonzero;fill:rgb(98.431373%,74.509804%,23.921569%);fill-opacity:1;" d="M 12.007812 12.03125 C 12.011719 10.886719 12.011719 9.824219 12.011719 8.722656 L 14.464844 8.722656 C 14.148438 11.84375 15.039062 14.664062 15.402344 17.679688 L 14.121094 17.679688 C 13.992188 17.09375 13.953125 16.382812 13.699219 15.941406 C 13.558594 15.695312 13.0625 15.894531 12.734375 15.894531 C 12.621094 16.480469 12.609375 17.199219 12.363281 17.585938 C 12.183594 17.871094 11.691406 17.726562 11.21875 17.789062 C 11.3125 15.773438 11.710938 13.957031 12.007812 12.03125 Z M 12.007812 12.03125 "/>
<path style=" stroke:none;fill-rule:nonzero;fill:rgb(98.039216%,86.666667%,21.176471%);fill-opacity:1;" d="M 25.046875 19.652344 L 28.203125 19.652344 L 28.203125 21.992188 L 26.523438 21.992188 L 26.75 31.273438 L 24.695312 31.273438 C 24.8125 30.460938 24.921875 29.707031 25.019531 28.953125 C 25.050781 28.707031 25.046875 28.453125 25.046875 28.203125 C 25.046875 26.164062 25.046875 24.125 25.046875 21.90625 C 25.046875 21.039062 25.046875 20.347656 25.046875 19.652344 Z M 25.046875 19.652344 "/>
<path style=" stroke:none;fill-rule:nonzero;fill:rgb(97.647059%,89.803922%,20.392157%);fill-opacity:1;" d="M 31.054688 26.570312 L 30.488281 26.644531 C 30.554688 27.445312 30.621094 28.25 30.746094 29.148438 C 30.882812 29.921875 30.96875 30.605469 31.054688 31.289062 L 28.699219 31.289062 C 29.101562 27.421875 29.203125 23.570312 28.65625 19.625 C 29.421875 19.625 30.050781 19.625 30.738281 19.722656 C 30.882812 20.496094 30.96875 21.175781 31.054688 21.855469 L 30.542969 21.921875 C 30.542969 22.65625 30.542969 23.402344 30.542969 24.316406 C 30.582031 25.253906 30.355469 26.160156 31.054688 26.570312 Z M 31.054688 26.570312 "/>
<path style=" stroke:none;fill-rule:nonzero;fill:rgb(98.431373%,72.54902%,24.313725%);fill-opacity:1;" d="M 9.585938 19.652344 C 10.382812 19.519531 11.164062 19.488281 11.640625 20.695312 C 11.800781 21.09375 11.988281 21.546875 11.996094 21.984375 C 12.03125 24.144531 11.992188 26.3125 12.023438 28.472656 C 12.035156 29.21875 11.933594 29.792969 11.523438 30.261719 C 11.089844 30.761719 10.691406 31.34375 10.257812 31.847656 C 10.160156 31.953125 9.96875 31.875 9.757812 31.792969 C 9.65625 30.832031 9.621094 29.960938 9.636719 29.074219 C 10.3125 29.15625 10.503906 28.707031 10.488281 27.835938 C 10.457031 26.234375 10.441406 24.628906 10.492188 23.03125 C 10.523438 22.117188 10.316406 21.75 9.710938 21.78125 C 9.664062 21.019531 9.625 20.335938 9.585938 19.652344 Z M 9.585938 19.652344 "/>
<path style=" stroke:none;fill-rule:nonzero;fill:rgb(98.431373%,69.803922%,24.705882%);fill-opacity:1;" d="M 9.585938 29.089844 C 9.621094 29.960938 9.65625 30.832031 9.703125 31.78125 C 8.476562 31.953125 7.285156 30.261719 7.285156 28.414062 C 7.285156 26.253906 7.285156 24.097656 7.285156 21.9375 C 7.285156 20.644531 7.96875 19.625 8.835938 19.621094 C 9.046875 19.621094 9.257812 19.625 9.527344 19.640625 C 9.625 20.335938 9.664062 21.019531 9.652344 21.792969 C 9.351562 21.882812 9.105469 21.882812 8.816406 21.882812 C 8.816406 23.964844 8.851562 25.941406 8.804688 27.914062 C 8.78125 28.824219 8.984375 29.191406 9.585938 29.089844 Z M 9.585938 29.089844 "/>
<path style=" stroke:none;fill-rule:nonzero;fill:rgb(98.039216%,80%,22.352941%);fill-opacity:1;" d="M 20.320312 31.289062 C 19.34375 31.710938 18.789062 30.789062 18.257812 29.847656 C 18.164062 29.6875 18.152344 29.394531 18.152344 29.160156 C 18.144531 26.660156 18.144531 24.15625 18.148438 21.65625 C 18.148438 20.765625 18.910156 19.632812 19.507812 19.625 C 19.824219 19.617188 20.140625 19.625 20.515625 19.71875 C 20.488281 20.496094 20.40625 21.175781 20.265625 21.871094 C 19.792969 21.8125 19.667969 22.105469 19.675781 22.699219 C 19.691406 24.351562 19.683594 26.003906 19.679688 27.652344 C 19.679688 29.285156 19.648438 28.988281 20.574219 29.167969 C 20.488281 29.929688 20.40625 30.609375 20.320312 31.289062 Z M 20.320312 31.289062 "/>
<path style=" stroke:none;fill-rule:nonzero;fill:rgb(98.039216%,82.745098%,21.960784%);fill-opacity:1;" d="M 20.320312 21.855469 C 20.40625 21.175781 20.488281 20.496094 20.574219 19.734375 C 21.347656 19.527344 22.113281 19.464844 22.589844 20.628906 C 22.722656 20.949219 22.859375 21.332031 22.863281 21.691406 C 22.886719 24.046875 22.875 26.402344 22.875 28.757812 C 22.875 30.15625 22.089844 31.316406 21.136719 31.320312 C 20.902344 31.320312 20.667969 31.320312 20.378906 31.304688 C 20.40625 30.609375 20.488281 29.929688 20.628906 29.15625 C 21.226562 29.1875 21.371094 28.8125 21.351562 28.054688 C 21.316406 26.527344 21.34375 25 21.34375 23.476562 C 21.34375 21.933594 21.34375 21.933594 20.320312 21.855469 Z M 20.320312 21.855469 "/>
<path style=" stroke:none;fill-rule:nonzero;fill:rgb(98.039216%,77.647059%,23.137255%);fill-opacity:1;" d="M 15.082031 29.089844 C 15.683594 29.191406 15.886719 28.828125 15.859375 27.914062 C 15.8125 26.15625 15.882812 24.394531 15.832031 22.636719 C 15.804688 21.675781 15.628906 20.726562 15.511719 19.683594 L 17.730469 19.683594 C 17.613281 20.445312 17.492188 21.167969 17.390625 21.898438 C 17.363281 22.109375 17.378906 22.335938 17.378906 22.558594 C 17.378906 24.601562 17.378906 26.644531 17.378906 28.6875 C 17.378906 30.199219 16.609375 31.320312 15.578125 31.320312 C 15.449219 31.320312 15.320312 31.316406 15.136719 31.21875 C 15.082031 30.445312 15.082031 29.765625 15.082031 29.089844 Z M 15.082031 29.089844 "/>
<path style=" stroke:none;fill-rule:nonzero;fill:rgb(98.431373%,74.901961%,23.529412%);fill-opacity:1;" d="M 15.027344 29.074219 C 15.082031 29.765625 15.082031 30.441406 15.082031 31.207031 C 14.300781 31.488281 13.59375 31.335938 13.148438 30.242188 C 12.984375 29.847656 12.804688 29.386719 12.796875 28.949219 C 12.757812 26.84375 12.8125 24.738281 12.765625 22.632812 C 12.742188 21.667969 12.558594 20.710938 12.433594 19.621094 L 13.695312 19.621094 C 14.53125 19.621094 14.855469 20.40625 14.496094 21.53125 C 14.40625 21.820312 14.324219 22.15625 14.320312 22.472656 C 14.304688 24.359375 14.335938 26.246094 14.300781 28.128906 C 14.289062 28.910156 14.488281 29.15625 15.027344 29.074219 Z M 15.027344 29.074219 "/>
<path style=" stroke:none;fill-rule:nonzero;fill:rgb(97.647059%,91.764706%,19.607843%);fill-opacity:1;" d="M 30.546875 11.675781 L 31.511719 8.714844 L 32.925781 8.714844 C 32.855469 10.242188 32.730469 11.726562 32.730469 13.214844 C 32.734375 14.683594 32.863281 16.148438 32.9375 17.675781 L 31.296875 17.675781 L 31.652344 13.546875 C 31.203125 14.042969 31.363281 15.203125 30.597656 14.800781 C 30.546875 13.691406 30.546875 12.683594 30.546875 11.675781 Z M 30.546875 11.675781 "/>
<path style=" stroke:none;fill-rule:nonzero;fill:rgb(97.647059%,89.411765%,20.392157%);fill-opacity:1;" d="M 30.546875 11.605469 C 30.546875 12.683594 30.546875 13.691406 30.542969 14.789062 C 29.75 15.125 30.042969 13.867188 29.5625 13.40625 L 29.917969 17.671875 L 28.203125 17.671875 C 28.609375 14.722656 28.660156 11.75 28.191406 8.847656 C 28.308594 8.75 28.34375 8.695312 28.382812 8.695312 C 29.84375 8.605469 29.84375 8.605469 30.410156 10.929688 C 30.457031 11.128906 30.5 11.332031 30.546875 11.605469 Z M 30.546875 11.605469 "/>
<path style=" stroke:none;fill-rule:nonzero;fill:rgb(98.039216%,77.647059%,23.137255%);fill-opacity:1;" d="M 17.742188 11.507812 C 17.75 11.589844 17.757812 11.671875 17.738281 11.867188 C 17.640625 12.550781 17.574219 13.113281 17.507812 13.679688 C 17.460938 14.089844 17.414062 14.503906 17.367188 14.914062 L 16.945312 13.6875 L 16.800781 13.746094 L 17.144531 17.675781 L 15.425781 17.675781 C 15.8125 14.71875 15.910156 11.746094 15.398438 8.855469 C 15.535156 8.75 15.570312 8.695312 15.609375 8.695312 C 16.957031 8.613281 16.957031 8.613281 17.648438 11.265625 C 17.683594 11.429688 17.710938 11.472656 17.742188 11.507812 Z M 17.742188 11.507812 "/>
<path style=" stroke:none;fill-rule:nonzero;fill:rgb(98.039216%,79.607843%,22.745098%);fill-opacity:1;" d="M 17.371094 14.988281 C 17.414062 14.503906 17.460938 14.089844 17.507812 13.679688 C 17.574219 13.113281 17.640625 12.550781 17.742188 11.929688 C 17.882812 12.148438 17.988281 12.421875 18.09375 12.691406 L 18.210938 12.675781 L 17.878906 8.722656 L 19.613281 8.722656 C 19.503906 9.605469 19.332031 10.421875 19.3125 11.246094 C 19.265625 13.066406 19.296875 14.886719 19.296875 16.707031 L 19.296875 17.625 C 18.125 17.910156 18.121094 17.914062 17.675781 16.355469 C 17.554688 15.9375 17.476562 15.492188 17.371094 14.988281 Z M 17.371094 14.988281 "/>
<path style=" stroke:none;fill-rule:nonzero;fill:rgb(98.431373%,69.803922%,24.705882%);fill-opacity:1;" d="M 9.074219 14.496094 C 8.789062 14.476562 8.644531 14.621094 8.683594 15.09375 C 8.753906 15.921875 8.796875 16.757812 8.851562 17.664062 L 7.347656 17.664062 L 7.347656 8.683594 C 7.90625 8.683594 8.496094 8.683594 9.140625 8.773438 C 9.160156 9.359375 9.117188 9.851562 9.019531 10.359375 C 8.871094 10.488281 8.710938 10.597656 8.703125 10.71875 C 8.675781 11.351562 8.691406 11.984375 8.691406 12.605469 C 8.910156 12.636719 9.054688 12.652344 9.203125 12.753906 C 9.160156 13.386719 9.117188 13.941406 9.074219 14.496094 Z M 9.074219 14.496094 "/>
<path style=" stroke:none;fill-rule:nonzero;fill:rgb(98.039216%,81.568627%,22.352941%);fill-opacity:1;" d="M 21.851562 17.703125 L 20 17.703125 L 20 8.683594 C 20.558594 8.683594 21.148438 8.683594 21.792969 8.773438 C 21.8125 9.359375 21.769531 9.851562 21.667969 10.359375 C 21.523438 10.492188 21.355469 10.605469 21.355469 10.722656 C 21.339844 12.488281 21.34375 14.25 21.34375 16.003906 C 21.558594 16.03125 21.707031 16.050781 21.851562 16.152344 Z M 21.851562 17.703125 "/>
<path style=" stroke:none;fill-rule:nonzero;fill:rgb(98.431373%,71.764706%,24.705882%);fill-opacity:1;" d="M 9.121094 14.511719 C 9.117188 13.941406 9.160156 13.386719 9.257812 12.738281 C 10.097656 12.554688 9.609375 11.6875 9.699219 11.191406 C 9.835938 10.445312 9.464844 10.339844 9.074219 10.347656 C 9.117188 9.851562 9.160156 9.359375 9.203125 8.789062 C 9.765625 8.59375 10.316406 8.582031 10.652344 9.417969 C 10.800781 9.789062 10.945312 10.210938 10.976562 10.628906 C 11.027344 11.339844 10.992188 12.066406 10.988281 12.785156 C 10.988281 12.972656 11.015625 13.253906 10.949219 13.324219 C 10.160156 14.144531 10.804688 15.046875 10.882812 15.894531 C 10.9375 16.46875 11.097656 17.023438 11.234375 17.6875 L 9.457031 17.6875 C 9.457031 16.871094 9.480469 16.066406 9.445312 15.265625 C 9.433594 15.011719 9.265625 14.773438 9.121094 14.511719 Z M 9.121094 14.511719 "/>
<path style=" stroke:none;fill-rule:nonzero;fill:rgb(98.039216%,85.882353%,21.176471%);fill-opacity:1;" d="M 26.199219 17.703125 C 25.550781 17.761719 24.867188 17.964844 24.445312 16.933594 C 24.316406 16.609375 24.171875 16.234375 24.167969 15.878906 C 24.136719 14.21875 24.152344 12.554688 24.152344 10.894531 C 24.152344 9.464844 24.679688 8.679688 25.636719 8.679688 C 25.789062 8.679688 25.9375 8.679688 26.140625 8.773438 C 26.242188 9.359375 26.285156 9.851562 26.269531 10.359375 C 25.964844 10.375 25.722656 10.375 25.429688 10.375 C 25.429688 11.917969 25.472656 13.378906 25.417969 14.828125 C 25.382812 15.746094 25.554688 16.175781 26.199219 16.152344 Z M 26.199219 17.703125 "/>
<path style=" stroke:none;fill-rule:nonzero;fill:rgb(98.039216%,83.529412%,21.568627%);fill-opacity:1;" d="M 21.910156 17.71875 C 21.851562 17.214844 21.851562 16.722656 21.898438 16.136719 C 22.125 15.976562 22.300781 15.90625 22.511719 15.78125 C 22.535156 14.003906 22.523438 12.289062 22.488281 10.5 C 22.214844 10.402344 21.972656 10.375 21.726562 10.347656 C 21.769531 9.851562 21.8125 9.359375 21.851562 8.789062 C 22.554688 8.609375 23.25 8.550781 23.625 9.699219 C 23.707031 9.960938 23.761719 10.273438 23.765625 10.5625 C 23.777344 12.21875 23.769531 13.875 23.769531 15.535156 C 23.769531 16.949219 23.238281 17.738281 22.28125 17.734375 C 22.160156 17.734375 22.035156 17.730469 21.910156 17.71875 Z M 21.910156 17.71875 "/>
<path style=" stroke:none;fill-rule:nonzero;fill:rgb(97.647059%,87.843137%,20.784314%);fill-opacity:1;" d="M 26.253906 17.71875 C 26.199219 17.214844 26.199219 16.722656 26.25 16.136719 C 26.4375 15.832031 26.6875 15.632812 26.691406 15.417969 C 26.726562 13.953125 26.726562 12.488281 26.691406 11.027344 C 26.6875 10.792969 26.453125 10.574219 26.324219 10.347656 C 26.28125 9.828125 26.238281 9.308594 26.199219 8.789062 C 26.703125 8.65625 27.238281 8.488281 27.5625 9.289062 C 27.691406 9.613281 27.839844 9.988281 27.847656 10.34375 C 27.875 12.039062 27.785156 13.746094 27.878906 15.433594 C 27.96875 16.996094 27.308594 18.019531 26.253906 17.71875 Z M 26.253906 17.71875 "/>
<path style=" stroke:none;fill-rule:nonzero;fill:rgb(97.647059%,92.156863%,19.607843%);fill-opacity:1;" d="M 31.113281 31.304688 C 30.96875 30.605469 30.882812 29.921875 30.800781 29.164062 C 31.496094 28.914062 32.195312 28.738281 32.941406 28.546875 L 32.941406 31.316406 C 32.339844 31.316406 31.757812 31.316406 31.113281 31.304688 Z M 31.109375 21.867188 C 30.96875 21.175781 30.882812 20.496094 30.800781 19.734375 C 31.496094 19.652344 32.191406 19.652344 32.929688 19.652344 L 32.929688 22.132812 C 32.34375 22.050781 31.753906 21.964844 31.109375 21.867188 Z M 31.109375 21.867188 "/>
<path style=" stroke:none;fill-rule:nonzero;fill:rgb(98.039216%,84.705882%,21.568627%);fill-opacity:1;" d="M 24.988281 19.640625 C 25.046875 20.347656 25.046875 21.039062 25.042969 21.820312 C 24.511719 21.984375 23.984375 22.058594 23.417969 22.140625 L 23.417969 19.625 C 23.929688 19.625 24.429688 19.625 24.988281 19.640625 Z M 24.988281 19.640625 "/>
<path style=" stroke:none;fill-rule:nonzero;fill:rgb(97.647059%,91.764706%,20%);fill-opacity:1;" d="M 31.109375 26.585938 C 30.355469 26.160156 30.582031 25.253906 30.546875 24.402344 C 31.117188 24.316406 31.691406 24.316406 32.25 24.316406 C 32.523438 26.546875 32.488281 26.613281 31.109375 26.585938 Z M 31.109375 26.585938 "/>
<path style=" stroke:none;fill-rule:nonzero;fill:rgb(98.039216%,79.607843%,22.745098%);fill-opacity:1;" d="M 17.746094 11.457031 C 17.710938 11.472656 17.683594 11.429688 17.652344 11.335938 C 17.675781 11.335938 17.714844 11.371094 17.746094 11.457031 Z M 17.746094 11.457031 "/>
<path style=" stroke:none;fill-rule:nonzero;fill:rgb(0%,0%,0%);fill-opacity:1;" d="M 9.636719 29.074219 C 8.984375 29.191406 8.78125 28.824219 8.804688 27.914062 C 8.851562 25.941406 8.816406 23.964844 8.816406 21.882812 C 9.105469 21.882812 9.351562 21.882812 9.65625 21.871094 C 10.316406 21.75 10.523438 22.117188 10.492188 23.03125 C 10.441406 24.628906 10.457031 26.234375 10.488281 27.835938 C 10.503906 28.707031 10.3125 29.15625 9.636719 29.074219 Z M 20.265625 21.871094 C 21.34375 21.933594 21.34375 21.933594 21.34375 23.476562 C 21.34375 25 21.316406 26.527344 21.351562 28.050781 C 21.371094 28.8125 21.226562 29.1875 20.628906 29.074219 C 19.648438 28.988281 19.679688 29.285156 19.679688 27.652344 C 19.683594 26.003906 19.691406 24.351562 19.675781 22.699219 C 19.667969 22.105469 19.792969 21.8125 20.265625 21.871094 Z M 9.019531 10.359375 C 9.464844 10.339844 9.835938 10.445312 9.699219 11.191406 C 9.609375 11.6875 10.097656 12.554688 9.257812 12.660156 C 9.054688 12.652344 8.910156 12.636719 8.691406 12.605469 C 8.691406 11.984375 8.675781 11.351562 8.703125 10.71875 C 8.710938 10.597656 8.871094 10.488281 9.019531 10.359375 Z M 22.476562 15.839844 C 22.300781 15.90625 22.125 15.976562 21.898438 16.054688 C 21.707031 16.050781 21.558594 16.03125 21.34375 16.003906 C 21.34375 14.25 21.339844 12.488281 21.355469 10.726562 C 21.355469 10.605469 21.523438 10.492188 21.667969 10.359375 C 21.972656 10.375 22.214844 10.402344 22.476562 10.589844 C 22.488281 12.441406 22.484375 14.140625 22.476562 15.839844 Z M 26.269531 10.359375 C 26.453125 10.574219 26.6875 10.792969 26.691406 11.027344 C 26.726562 12.488281 26.726562 13.953125 26.691406 15.417969 C 26.6875 15.632812 26.4375 15.832031 26.25 16.054688 C 25.554688 16.175781 25.382812 15.746094 25.417969 14.828125 C 25.472656 13.378906 25.429688 11.917969 25.429688 10.375 C 25.722656 10.375 25.964844 10.375 26.269531 10.359375 Z M 26.269531 10.359375 "/>
<path style=" stroke:none;fill-rule:nonzero;fill:rgb(100%,80.392157%,20%);fill-opacity:1;" d="M 22.511719 15.78125 C 22.484375 14.140625 22.488281 12.441406 22.503906 10.65625 C 22.523438 12.289062 22.535156 14.003906 22.511719 15.78125 Z M 22.511719 15.78125 "/>
</g>
</svg>
